<?xml version="1.0" encoding="UTF-8"?>
<!DOCTYPE svg PUBLIC "-//W3C//DTD SVG 1.1//EN" "http://www.w3.org/Graphics/SVG/1.1/DTD/svg11.dtd">
<!-- Creator: CorelDRAW 2020 (64-Bit) -->
<svg xmlns="http://www.w3.org/2000/svg" xml:space="preserve" width="145mm" height="140mm" version="1.1" style="shape-rendering:geometricPrecision; text-rendering:geometricPrecision; image-rendering:optimizeQuality; fill-rule:evenodd; clip-rule:evenodd"
viewBox="0 0 14500 14000"
 xmlns:xlink="http://www.w3.org/1999/xlink"
 xmlns:xodm="http://www.corel.com/coreldraw/odm/2003">
 <defs>
  <style type="text/css">
   <![CDATA[
    .str0 {stroke:black;stroke-width:200;stroke-miterlimit:22.9256}
    .str1 {stroke:#FEFEFE;stroke-width:282.22;stroke-miterlimit:22.9256}
    .fil2 {fill:#FEFEFE}
    .fil1 {fill:#FEFEFE;fill-rule:nonzero}
    .fil0 {fill:#FEFEFE;fill-rule:nonzero}
   ]]>
  </style>
 </defs>
 <g id="Слой_x0020_1">
  <metadata id="CorelCorpID_0Corel-Layer"/>
  <g id="_2725238978480">
   <g>
    <path class="fil0 str0" d="M11124.11 3851.82l-0.4 -81.84c-0.42,-45.69 -5.79,-90.83 -16.11,-137.05 -36.7,-315.2 -283.37,-553.32 -598.7,-571.95 -267.63,-15.8 -1676.88,-30.64 -3461.23,-49.37 -2391.59,-25.32 -5666.95,-59.85 -6035.51,-103.99 -114.59,-14.05 -214.23,1.35 -308.74,41.25 -275.97,85.33 -437.18,334.07 -403.65,630.13 68.1,600.24 110.49,8652.04 75.96,9342.76 -6.91,134.91 25.74,261.33 94.38,367.61 105.94,190.92 298.93,311.31 521.55,323.4 681.73,37.07 9211.84,39.24 9574.61,39.37 157.29,0 306.88,-53.54 423.06,-160.68 215.53,-145.65 322.18,-396.88 273.13,-654.58 -58,-312.13 -112.42,-3838.94 -138.35,-8985.06zm-9512.78 367.98c321.32,7.78 818.27,15.07 1455.96,22.27 18.57,-0.53 37.36,0.26 55.95,0.63l205.78 2.24c16.97,-1.82 34.23,-2.87 51.75,-3.09l1481.67 0c47.28,0.6 92.52,6.61 136.25,18.83 513.81,4.43 1067.74,8.96 1654.25,13.68 1338.95,10.82 2620.04,21.03 3208.92,30.37 2.01,255.75 4.58,638.39 7.65,1097.2 23.79,3550.73 46.09,6035.46 77.26,6979.18l-204.07 -0.26c-4456.91,-4.58 -7168.3,-11.17 -8088.02,-19.47 3.93,-1436.11 -11.84,-6634.38 -43.35,-8141.58z"/>
   </g>
  </g>
  <g id="_2725238974592">
  </g>
  <g id="_2725238974208">
  </g>
  <g id="_2725238974976">
  </g>
  <g id="_2725238973488">
  </g>
  <g id="_2725238972960">
  </g>
  <g id="_2725238975888">
  </g>
  <g id="_2725238998544">
  </g>
  <g id="_2725238997680">
  </g>
  <g id="_2725238997584">
  </g>
  <g id="_2725239000416">
  </g>
  <g id="_2725238996288">
  </g>
  <g id="_2725238994608">
  </g>
  <g id="_2725238993744">
  </g>
  <g id="_2725238993696">
  </g>
  <g id="_2725238989520">
  </g>
  <g id="_2725238991056">
   <g>
    <path class="fil1 str0" d="M14196.38 1075.36l-0.4 -81.84c-0.42,-45.69 -5.79,-90.83 -16.11,-137.05 -36.7,-315.2 -283.37,-553.32 -598.7,-571.95 -267.63,-15.8 -1676.88,-30.64 -3461.23,-49.37 -2391.59,-25.32 -5666.95,-59.85 -6035.51,-103.99 -114.59,-14.05 -214.23,1.35 -308.74,41.25 -275.97,85.33 -437.18,334.07 -403.65,630.13 27.72,244.39 51.19,1724.14 66.93,3439.31l1272.86 0c-7.13,-1185.48 -16.61,-2242.88 -28.23,-2798.51 790.55,19.16 2644.22,35.27 5041.61,54.56 1338.95,10.82 2620.04,21.03 3208.92,30.37 2.01,255.75 4.58,638.39 7.65,1097.2 23.79,3550.73 46.09,6035.46 77.26,6979.18 -1021.45,-1.3 -2042.91,-2.28 -3064.36,-3.83l21.92 1271.06c1876.44,3.32 3507.68,3.75 3661.94,3.8 157.29,0 306.88,-53.54 423.06,-160.68 215.53,-145.65 322.18,-396.88 273.13,-654.58 -58,-312.13 -112.42,-3838.94 -138.35,-8985.06z"/>
   </g>
  </g>
  <path class="fil2 str1" d="M1654.68 12361.38c3.93,-1436.11 -11.84,-6634.38 -43.35,-8141.58 321.32,7.78 818.27,15.07 1455.96,22.27 18.57,-0.53 37.36,0.26 55.95,0.63l205.78 2.24c16.97,-1.82 34.23,-2.87 51.75,-3.09l58.2 0c-4.09,-446.1 -8.71,-876.27 -13.79,-1272.92 -1236.8,-17.86 -2220.69,-38.28 -2413.02,-61.31 -114.59,-14.05 -214.23,1.35 -308.74,41.25 -275.97,85.33 -437.18,334.07 -403.65,630.13 68.1,600.24 110.49,8652.04 75.96,9342.76 -6.91,134.91 25.74,261.33 94.38,367.61 105.94,190.92 298.93,311.31 521.55,323.4 681.73,37.07 9211.84,39.24 9574.61,39.37 157.29,0 306.88,-53.54 423.06,-160.68 215.53,-145.65 322.18,-396.88 273.13,-654.58 -24.27,-130.59 -47.91,-823.93 -69.1,-1963.17 -383.75,-0.48 -794.03,-1.08 -1216.76,-1.83l-21.92 -1271.06c406.18,0.62 812.36,1.14 1218.55,1.63 -20.53,-1505.91 -37.62,-3469.13 -49.12,-5750.63l-0.4 -81.84c-0.42,-45.69 -5.79,-90.83 -16.11,-137.05 -36.7,-315.2 -283.37,-553.32 -598.7,-571.95 -267.63,-15.8 -1676.88,-30.64 -3461.23,-49.37 -734.82,-7.78 -1553.07,-16.43 -2344.81,-25.96 3.31,387.83 6.3,813.06 8.97,1256.2l150.61 0c47.28,0.6 92.52,6.61 136.25,18.83 513.81,4.43 1067.74,8.96 1654.25,13.68 1338.95,10.82 2620.04,21.03 3208.92,30.37 2.01,255.75 4.58,638.39 7.65,1097.2 23.79,3550.73 46.09,6035.46 77.26,6979.18l-204.07 -0.26c-4456.91,-4.58 -7168.3,-11.17 -8088.02,-19.47z"/>
  <path class="fil2 str1" d="M3425.18 2968.93c5.08,396.65 9.7,826.82 13.79,1272.92l1272.86 0c-2.67,-443.14 -5.66,-868.37 -8.97,-1256.2 -5.55,-649.69 -11.98,-1194.38 -19.26,-1542.31 790.55,19.16 2644.22,35.27 5041.61,54.56 1338.95,10.82 2620.04,21.03 3208.92,30.37 2.01,255.75 4.58,638.39 7.65,1097.2 23.79,3550.73 46.09,6035.46 77.26,6979.18 -615.27,-0.78 -1230.54,-1.45 -1845.81,-2.2 -406.18,-0.49 -812.37,-1.01 -1218.55,-1.63l21.92 1271.06c422.73,0.75 833.01,1.35 1216.76,1.83 1319.69,1.66 2325.67,1.93 2445.18,1.97 157.29,0 306.88,-53.54 423.06,-160.68 215.53,-145.65 322.18,-396.88 273.13,-654.58 -58,-312.13 -112.42,-3838.94 -138.35,-8985.06l-0.4 -81.84c-0.42,-45.69 -5.79,-90.83 -16.11,-137.05 -36.7,-315.2 -283.37,-553.32 -598.7,-571.95 -267.63,-15.8 -1676.88,-30.64 -3461.23,-49.37 -2391.59,-25.32 -5666.95,-59.85 -6035.51,-103.99 -114.59,-14.05 -214.23,1.35 -308.74,41.25 -275.97,85.33 -437.18,334.07 -403.65,630.13 20.51,180.83 38.69,1037.97 53.14,2166.39z"/>
 </g>
</svg>
